<?xml version="1.0" encoding="UTF-8"?>
<!DOCTYPE svg PUBLIC "-//W3C//DTD SVG 1.1//EN" "http://www.w3.org/Graphics/SVG/1.1/DTD/svg11.dtd">
<!-- Creator: CorelDRAW 2021 (64-Bit) -->
<svg xmlns="http://www.w3.org/2000/svg" xml:space="preserve" width="194.749mm" height="81.739mm" version="1.1" style="shape-rendering:geometricPrecision; text-rendering:geometricPrecision; image-rendering:optimizeQuality; fill-rule:evenodd; clip-rule:evenodd"
viewBox="0 0 19431.78 8155.81"
 xmlns:xlink="http://www.w3.org/1999/xlink"
 xmlns:xodm="http://www.corel.com/coreldraw/odm/2003">
 <defs>
  <style type="text/css">
   <![CDATA[
    .fil0 {fill:#FEFEFE;fill-rule:nonzero}
   ]]>
  </style>
 </defs>
 <g id="Layer_x0020_1">
  <metadata id="CorelCorpID_0Corel-Layer"/>
  <g id="_1968729547648">
   <g>
    <g>
     <path class="fil0" d="M9973.75 4844.63c-157.68,-64.5 -480.19,-7.16 -480.19,-7.16 129,-179.18 218.6,-901.86 229.34,-781.21 10.76,120.64 250.85,788.37 250.85,788.37zm668.61 -2938.49c0.56,-0.34 1.11,-0.65 1.67,-0.94 -0.56,0.29 -1.11,0.6 -1.67,0.94zm1.7 -0.96c0.53,-0.28 1.06,-0.54 1.59,-0.79 -0.53,0.25 -1.06,0.51 -1.59,0.79zm1.69 -0.83c0.52,-0.24 1.05,-0.47 1.57,-0.67 -0.52,0.2 -1.05,0.43 -1.57,0.67zm1.63 -0.7c0.52,-0.2 1.03,-0.38 1.54,-0.55 -0.51,0.17 -1.02,0.35 -1.54,0.55zm1.71 -0.6c0.5,-0.16 0.99,-0.3 1.49,-0.44 -0.5,0.13 -0.99,0.28 -1.49,0.44zm1.61 -0.47c0.5,-0.12 1,-0.24 1.49,-0.33 -0.5,0.09 -0.99,0.21 -1.49,0.33zm3.19 -0.61c0.52,-0.07 1.03,-0.12 1.55,-0.15 -0.51,0.03 -1.03,0.08 -1.55,0.15zm1.58 -0.15c0.5,-0.04 1,-0.05 1.5,-0.06 -0.5,0.01 -1,0.02 -1.5,0.06zm1.63 -0.06c0.48,0 0.95,0.01 1.43,0.04 -0.48,-0.03 -0.95,-0.04 -1.43,-0.04zm1.55 0.04c0.49,0.03 0.97,0.07 1.45,0.13 -0.48,-0.06 -0.96,-0.1 -1.45,-0.13zm1.55 0.14c0.48,0.06 0.95,0.12 1.42,0.21 -0.47,-0.09 -0.94,-0.15 -1.42,-0.21zm1.6 0.24c0.45,0.08 0.89,0.17 1.33,0.27 -0.44,-0.1 -0.88,-0.19 -1.33,-0.27zm1.5 0.31c0.97,0.23 1.94,0.51 2.89,0.84 -0.96,-0.33 -1.93,-0.61 -2.89,-0.84zm2.99 0.87c0.44,0.16 0.88,0.32 1.32,0.5 -0.44,-0.18 -0.88,-0.34 -1.32,-0.5zm1.52 0.57c0.41,0.17 0.83,0.35 1.24,0.53 -0.41,-0.18 -0.83,-0.36 -1.24,-0.53zm1.45 0.63c0.43,0.2 0.87,0.41 1.3,0.62 -0.43,-0.22 -0.87,-0.42 -1.3,-0.62zm1.44 0.7c0.45,0.22 0.88,0.46 1.32,0.7 -0.44,-0.24 -0.87,-0.48 -1.32,-0.7zm1.4 0.74c0.43,0.25 0.87,0.5 1.3,0.76 -0.44,-0.26 -0.87,-0.51 -1.3,-0.76zm1.42 0.84c0.44,0.26 0.88,0.55 1.31,0.83 -0.43,-0.29 -0.87,-0.57 -1.31,-0.83zm1.42 0.9c0.41,0.27 0.81,0.54 1.21,0.83 -0.4,-0.29 -0.81,-0.56 -1.21,-0.83zm1.38 0.95c0.41,0.29 0.83,0.6 1.24,0.9 -0.41,-0.3 -0.83,-0.61 -1.24,-0.9zm1.35 0.99c0.42,0.32 0.83,0.64 1.25,0.98 -0.41,-0.34 -0.83,-0.66 -1.25,-0.98zm1.31 1.02c0.44,0.35 0.87,0.71 1.3,1.08 0.39,0.33 0.78,0.67 1.17,1.01l-2.46 -2.09zm-947.65 1287.87l-108.71 11.98c0,0 26.53,313.05 -64.5,903.05 -96.76,627.12 -437.19,867.22 -437.19,867.22 0,0 0,-207.85 -179.18,-229.35 -179.17,-21.5 -250.84,93.17 -258.02,236.52 -7.16,143.34 229.35,329.69 473.03,143.34 243.68,-186.35 876.46,-186.35 1120.14,0 243.68,186.35 480.19,0 473.02,-143.34 -7.16,-143.34 -78.84,-258.02 -258.01,-236.52 -179.18,21.5 -179.18,229.35 -179.18,229.35 0,0 -321,-261.6 -437.19,-867.22 -112.47,-586.29 -64.5,-903.05 -64.5,-903.05 0,0 2.04,-0.03 5.85,0l-85.56 -11.98zm1140.43 -1399.93l-121.84 -107.5 60.92 53.75 60.91 53.75zm-1876.78 445.41c-4.3,4.57 -7.88,8.96 -9.85,12.55 1.97,-3.59 5.56,-7.98 9.85,-12.55zm-353.62 -515.53l42.37 -37.39 -42.37 37.39zm127.74 174.3c0.43,-0.12 0.87,-0.24 1.31,-0.34 -0.44,0.1 -0.88,0.22 -1.31,0.34zm2.92 -0.66c0.45,-0.08 0.9,-0.15 1.35,-0.2 -0.45,0.05 -0.9,0.12 -1.35,0.2zm1.5 -0.22c0.47,-0.05 0.94,-0.09 1.42,-0.12 -0.48,0.03 -0.95,0.07 -1.42,0.12zm1.61 -0.13c0.45,-0.03 0.9,-0.04 1.36,-0.04 -0.46,0 -0.91,0.01 -1.36,0.04zm1.52 -0.04c0.49,0.01 0.98,0.02 1.47,0.05 -0.49,-0.03 -0.98,-0.04 -1.47,-0.05zm1.59 0.06c0.48,0.04 0.96,0.08 1.44,0.14 -0.48,-0.06 -0.96,-0.1 -1.44,-0.14zm1.59 0.16c0.5,0.06 0.99,0.15 1.49,0.24 -0.5,-0.09 -0.99,-0.18 -1.49,-0.24zm1.65 0.27c0.48,0.1 0.96,0.21 1.45,0.33 -0.49,-0.12 -0.97,-0.23 -1.45,-0.33zm1.57 0.36c0.51,0.13 1.02,0.28 1.54,0.45 -0.52,-0.17 -1.03,-0.32 -1.54,-0.45zm1.67 0.49c0.48,0.16 0.97,0.33 1.45,0.52 -0.48,-0.19 -0.97,-0.36 -1.45,-0.52zm1.64 0.6c0.51,0.19 1.01,0.41 1.52,0.64 -0.51,-0.23 -1.01,-0.44 -1.52,-0.64zm1.59 0.67c0.53,0.25 1.07,0.51 1.6,0.79 -0.53,-0.28 -1.07,-0.54 -1.6,-0.79zm1.7 0.85c0.54,0.28 1.08,0.59 1.63,0.92 -0.55,-0.33 -1.09,-0.64 -1.63,-0.92z"/>
    </g>
    <path class="fil0" d="M9744.39 2809.19c0,0 -415.69,-508.86 -444.35,-566.19 0,0 401.36,-351.19 415.69,-401.36 0,0 380.45,419.58 442.85,416.17 8.68,-0.48 -414.18,551.39 -414.18,551.39zm-1182.57 -2021.12c71.67,-293.85 444.36,-229.34 444.36,-229.34 0,0 15.88,57.79 28.67,179.17 14.34,136.18 215.01,473.03 215.01,473.03 -43,57.33 -430.03,351.18 -430.03,351.18 -114.68,-114.67 -329.69,-480.18 -258.02,-774.04zm1010.56 164.84c-21.5,50.17 -166.83,104.51 -166.83,104.51 -188.34,-182.19 -191.53,-391.19 -191.53,-391.19 136.18,28.68 358.36,286.68 358.36,286.68zm157.68 -752.14c372.68,-0.4 487.36,228.95 487.36,228.95 -62.43,10.22 -494.53,358.35 -494.53,358.35l-447.94 -366.45c0,0 88.5,-220.46 455.11,-220.85zm297.91 856.65c0,0 -145.33,-54.34 -166.83,-104.51 0,0 222.18,-258.01 358.35,-286.68 0,0 -3.17,209.01 -191.52,391.19zm370.7 -319.52c12.78,-121.38 28.67,-179.17 28.67,-179.17 0,0 372.68,-64.51 444.35,229.34 71.67,293.86 -143.33,659.38 -258.01,774.04 0,0 -387.02,-293.85 -430.03,-351.18 0,0 200.67,-336.85 215.01,-473.03zm243.68 1168.24c15.72,-9.43 30.05,-2.32 41.81,9.25l126.62 -170.51 -60.92 -53.75c0,0 680.9,-653.14 200.68,-1211.23 -265.18,-308.19 -602.03,-136.18 -602.03,-136.18 0,0 -78.84,-350.39 -630.7,-343.62l-2.08 0c-551.87,-6.77 -630.7,343.62 -630.7,343.62 0,0 -336.85,-172.01 -602.03,136.18 -480.21,558.09 200.67,1211.23 200.67,1211.23l-60.16 53.08 128.49 168.7c11.24,-10.05 24.62,-15.51 39.17,-6.76 35.83,21.5 236.52,308.18 236.52,308.18 0,0 -15.01,12.01 -27.55,24.37l731.12 959.88 708.18 -953.63c-13.09,-14.2 -33.61,-30.61 -33.61,-30.61 0,0 200.67,-286.67 236.52,-308.18zm-573.37 -516.04c0,0 365.52,308.19 422.86,344.03 0,0 -154.5,239.79 -231.34,345.65 0,0 -334.87,-295.48 -435.2,-417.32 0,0 200.67,-207.85 243.68,-272.36zm-532.43 -164.83c0,0 164.84,-116 182.75,-136.85 17.92,-20.83 154.1,144.01 204.27,158.34 0,0 -179.18,183.88 -193.51,235.29 0,0 -157.68,-235.29 -193.51,-256.78zm-594.87 508.86c57.34,-35.84 422.86,-344.03 422.86,-344.03 42.99,64.51 243.68,272.36 243.68,272.36 -100.34,121.84 -435.2,417.32 -435.2,417.32 -76.85,-105.87 -231.34,-345.65 -231.34,-345.65z"/>
    <path class="fil0" d="M12262.11 3081.53c0,0 -286.68,-401.35 -365.52,-422.85 0,0 161.66,-504.71 166.83,-546.21 5.18,-41.49 399.36,66.01 377.86,574.87 0,0 -35.83,301.01 -179.17,394.19zm-286.68 709.55c-308.19,157.67 -594.87,-93.17 -594.87,-93.17 121.85,-93.17 243.69,-358.36 243.69,-358.36 200.67,71.67 523.19,28.67 523.19,28.67 0,0 136.18,265.18 -172.01,422.86zm-797.53 -150.52c-37.84,-64.5 -398.69,-241.68 -398.69,-241.68 36.51,-334.86 185.66,-467.85 185.66,-467.85 57.34,107.51 508.86,344.02 508.86,344.02 -7.16,57.34 -295.83,365.52 -295.83,365.52zm-331.29 202.56c-96.76,-48.28 -60.91,-202.56 -60.91,-202.56l265.18 136.18c-14.34,50.17 -107.51,114.68 -204.27,66.38zm-211.42 -553.74c0,0 -121.84,-57.33 -250.85,-126.22 -129,-68.89 -408.52,-174.8 -408.52,-174.8 71.67,-42.99 437.19,-487.36 437.19,-487.36 35.84,43 379.86,301.02 379.86,301.02 -121.84,207.84 -157.67,487.36 -157.67,487.36zm48.97 -1373.99c15.04,14.8 25.84,36.89 29.86,40.92 0,0 -258.02,315.35 -265.18,301.01 -1.75,-3.49 -5.19,-7.82 -9.4,-12.39l-708.18 953.63 85.57 11.98c38.26,0.29 257.39,6.49 438.5,107.5 173.13,96.57 329.69,193.51 329.69,193.51 0,0 -50.17,365.52 164.99,473.43 250.84,125.79 472.87,-122.24 472.87,-122.24 0,0 594.87,394.19 953.22,57.33 358.36,-336.85 136.18,-630.7 136.18,-630.7 0,0 336.85,-129 286.68,-752.54 -50.17,-623.54 -523.2,-623.54 -523.2,-623.54 0,0 64.51,-544.7 -387.02,-573.37 -451.52,-28.67 -817.05,458.69 -817.05,458.69l-60.91 -53.75 -126.62 170.51zm162.45 130.5c14.34,-21.49 251.53,216.61 279.86,244.48 0,0 -237.64,247.63 -248,302.6l-325.71 -217.39c0,0 279.52,-308.19 293.85,-329.69zm992.64 863.63c57.34,21.5 215.01,265.18 215.01,265.18 -143.34,28.67 -329.68,-14.33 -329.68,-14.33 0,0 57.33,-272.36 114.67,-250.85zm-150.51 -143.34c0,21.5 -157.67,301.02 -157.67,301.02 -136.18,-28.67 -501.7,-336.85 -501.7,-336.85 21.5,-150.51 258.02,-308.19 258.02,-308.19l401.35 344.02zm-228.74 -469.44c-50.77,-46.59 285.46,-201.11 386.42,-182.76 78.84,14.34 -93.17,408.52 -93.17,408.52 0,0 -242.48,-179.17 -293.25,-225.76zm128.41 -813.47c222.18,28.67 336.85,143.34 322.51,372.69l1.2 58.53c0,0 -352.38,-1.2 -617.56,228.14l-286.68 -207.84c0,0 358.36,-480.19 580.53,-451.53z"/>
    <path class="fil0" d="M9049.2 3163.16c-129.01,68.89 -250.85,126.22 -250.85,126.22 0,0 -35.83,-279.52 -157.67,-487.36 0,0 344.02,-258.02 379.85,-301.02 0,0 365.53,444.36 437.19,487.36 0,0 -279.51,105.92 -408.51,174.8zm-793.56 477.4c0,0 -288.67,-308.18 -295.83,-365.52 0,0 451.52,-236.51 508.86,-344.02 0,0 149.15,132.99 185.66,467.85 0,0 -360.86,177.19 -398.69,241.68zm331.28 202.56c-96.76,48.29 -189.92,-16.21 -204.26,-66.38l265.18 -136.18c0,0 35.83,154.28 -60.92,202.56zm-1128.81 -52.04c-308.19,-157.68 -172.01,-422.86 -172.01,-422.86 0,0 322.51,43 523.19,-28.67 0,0 121.84,265.18 243.68,358.36 0,0 -286.67,250.84 -594.86,93.17zm-286.68 -709.55c-143.34,-93.17 -179.17,-394.19 -179.17,-394.19 -21.5,-508.86 372.68,-616.36 377.86,-574.87 5.17,41.5 166.83,546.21 166.83,546.21 -78.84,21.5 -365.52,422.85 -365.52,422.85zm673.71 -1598.25c222.18,-28.67 580.53,451.53 580.53,451.53l-286.68 207.84c-265.18,-229.34 -617.56,-228.14 -617.56,-228.14l1.19 -58.53c-14.33,-229.35 100.35,-344.03 322.52,-372.69zm301.01 938.89c0,0 236.52,157.68 258.02,308.19 0,0 -365.52,308.19 -501.7,336.85 0,0 -157.67,-279.52 -157.67,-301.02l401.35 -344.02zm-437.19 738.21c0,0 -186.35,42.99 -329.68,14.33 0,0 157.67,-243.68 215,-265.18 57.34,-21.5 114.68,250.85 114.68,250.85zm-28.67 -637.88c0,0 -172.01,-394.19 -93.17,-408.52 100.97,-18.35 437.19,136.18 386.42,182.76 -50.77,46.59 -293.25,225.76 -293.25,225.76zm906.63 -476.61c14.34,21.5 293.86,329.69 293.86,329.69l-325.71 217.39c-10.36,-54.97 -248,-302.6 -248,-302.6 28.33,-27.87 265.52,-265.97 279.85,-244.48zm424.04 182.69c-10.38,9.29 -22.43,21.06 -26.26,28.74 -7.16,14.34 -265.18,-301.01 -265.18,-301.01 5.62,-5.62 24.42,-46.41 49.53,-53.49l-117.29 -157.94 -10.45 -16.36 -79.47 70.11c0,0 -365.52,-487.36 -817.04,-458.69 -451.53,28.67 -387.02,573.37 -387.02,573.37 0,0 -473.03,0 -523.2,623.54 -50.17,623.54 286.68,752.54 286.68,752.54 0,0 -222.18,293.85 136.18,630.7 358.35,336.85 953.22,-57.33 953.22,-57.33 0,0 222.03,248.03 472.87,122.24 215.16,-107.91 164.99,-473.43 164.99,-473.43 0,0 163.26,-85.82 329.69,-193.51 182.75,-118.26 444.35,-107.5 444.35,-107.5l108.71 -11.98 -720.31 -969.98z"/>
   </g>
   <path class="fil0" d="M284.51 5987.24l-238.62 0c-24.92,0 -45.89,20.95 -45.89,47.17l0 823.37c0,26.21 20.96,47.22 45.89,47.22l238.62 0c306.79,0 489.05,-188.81 489.05,-458.9 0,-270.05 -182.26,-458.85 -489.05,-458.85zm0 752.55l-106.22 0 0 -587.36 106.22 0c167.81,0 310.72,89.16 310.72,293.66 0,204.54 -142.91,293.7 -310.72,293.7zm1430.95 120.64l-198 -322.56c99.64,-47.18 161.26,-135.01 161.26,-251.71 0,-174.39 -135.05,-298.92 -340.86,-298.92l-271.39 0c-26.25,0 -47.21,20.95 -47.21,47.17l0 823.37c0,26.21 20.95,47.22 47.21,47.22l83.9 0c26.22,0 47.18,-21 47.18,-47.22l0 -283.18 140.31 0c3.93,0 9.19,0 14.41,0l170.45 300.24c10.48,18.35 30.15,30.15 51.15,30.15l116.66 0c23.61,0 36.74,-24.93 24.93,-44.56zm-517.91 -708l140.31 0c98.31,0 159.94,51.11 159.94,133.72 0,93.09 -69.5,135.05 -159.94,135.05l-140.31 0 0 -268.77zm1425.68 752.56l97.03 0c23.6,0 40.62,-23.61 32.8,-47.22l-298.96 -832.52c-9.16,-22.28 -30.15,-38.02 -55.04,-38.02l-136.38 0c-24.88,0 -47.21,15.74 -55.08,38.02l-300.24 832.52c-7.87,23.61 9.19,47.22 34.12,47.22l96.98 0c24.93,0 47.22,-15.75 55.09,-39.34l48.49 -142.92 377.6 0 48.53 142.92c7.87,23.6 30.15,39.34 55.04,39.34zm-427.42 -340.87l135.05 -397.28 135.04 397.28 -270.09 0zm882.88 163.87c-53.75,0 -96.98,43.28 -96.98,97.03 0,53.75 43.23,97.03 96.98,97.03 52.47,0 95.75,-43.28 95.75,-97.03 0,-53.75 -43.27,-97.03 -95.75,-97.03zm1356.19 177.01l97.03 0c23.6,0 40.62,-23.61 32.8,-47.22l-298.97 -832.52c-9.15,-22.28 -30.14,-38.02 -55.04,-38.02l-136.37 0c-24.89,0 -47.22,15.74 -55.08,38.02l-300.24 832.52c-7.87,23.61 9.19,47.22 34.12,47.22l96.98 0c24.93,0 47.22,-15.75 55.08,-39.34l48.5 -142.92 377.6 0 48.53 142.92c7.87,23.6 30.15,39.34 55.04,39.34zm-427.42 -340.87l135.05 -397.28 135.04 397.28 -270.09 0zm1353.58 -529.71l0 559.86 -385.46 -575.55c-13.09,-19.67 -35.37,-31.47 -57.69,-31.47l-77.32 0c-26.25,0 -47.21,20.95 -47.21,47.17l0 823.37c0,26.21 20.95,47.22 47.21,47.22l83.9 0c26.21,0 47.17,-21 47.17,-47.22l0 -559.82 385.47 575.55c13.13,19.68 35.41,31.48 59.01,31.48l76.04 0c26.21,0 47.21,-21 47.21,-47.22l0 -823.37c0,-26.21 -20.99,-47.17 -47.21,-47.17l-83.9 0c-26.21,0 -47.22,20.95 -47.22,47.17zm1124.16 870.59l97.03 0c23.6,0 40.62,-23.61 32.8,-47.22l-298.97 -832.52c-9.15,-22.28 -30.14,-38.02 -55.04,-38.02l-136.37 0c-24.88,0 -47.22,15.74 -55.08,38.02l-300.24 832.52c-7.87,23.61 9.19,47.22 34.12,47.22l96.98 0c24.93,0 47.22,-15.75 55.08,-39.34l48.5 -142.92 377.6 0 48.53 142.92c7.87,23.6 30.15,39.34 55.04,39.34zm-427.42 -340.87l135.05 -397.28 135.04 397.28 -270.09 0zm1660.37 -141.64l0 -2.6c65.55,-39.34 100.97,-100.97 100.97,-186.16 0,-146.84 -114.1,-246.48 -323.85,-246.48l-264.83 0c-24.93,0 -45.89,20.95 -45.89,47.17l0 823.37c0,26.21 20.95,47.22 45.89,47.22l298.92 0c211.08,0 325.18,-103.58 325.18,-264.84 0,-102.28 -48.54,-177 -136.38,-217.67zm-222.89 -281.85c77.36,0 145.53,27.54 145.53,111.44 0,85.23 -64.23,116.66 -145.53,116.66l-133.72 0 0 -228.1 133.72 0zm34.08 610.96l-167.81 0 0 -241.22 167.81 0c78.69,0 144.24,31.43 144.24,117.98 0,81.3 -60.34,123.25 -144.24,123.25zm743.9 -11.8l0 -216.34 275.36 0c24.88,0 45.88,-20.95 45.88,-45.89l0 -72.1c0,-26.21 -20.99,-47.21 -45.88,-47.21l-275.36 0 0 -205.82 305.5 0c24.93,0 45.89,-20.99 45.89,-47.22l0 -70.81c0,-26.21 -20.95,-47.17 -45.89,-47.17l-436.57 0c-26.26,0 -47.22,20.95 -47.22,47.17l0 823.37c0,26.21 20.95,47.22 47.22,47.22l448.38 0c26.21,0 47.22,-21 47.22,-47.22l0 -70.77c0,-26.21 -21,-47.22 -47.22,-47.22l-317.31 0zm1282.8 165.2l97.03 0c23.61,0 40.63,-23.61 32.8,-47.22l-298.96 -832.52c-9.15,-22.28 -30.15,-38.02 -55.04,-38.02l-136.38 0c-24.88,0 -47.21,15.74 -55.08,38.02l-300.24 832.52c-7.86,23.61 9.2,47.22 34.12,47.22l96.99 0c24.92,0 47.21,-15.75 55.08,-39.34l48.49 -142.92 377.6 0 48.53 142.92c7.87,23.6 30.15,39.34 55.04,39.34zm-427.42 -340.87l135.05 -397.28 135.05 397.28 -270.1 0zm1226.41 -576.88l-525.74 0c-24.88,0 -45.89,20.95 -45.89,47.17l0 70.81c0,26.22 21,47.22 45.89,47.22l174.39 0 0 705.35c0,26.21 20.95,47.22 45.89,47.22l85.22 0c26.22,0 45.89,-21 45.89,-47.22l0 -705.35 174.35 0c26.25,0 47.21,-20.99 47.21,-47.22l0 -70.81c0,-26.21 -20.95,-47.17 -47.21,-47.17zm982.56 873.19l-198 -322.56c99.64,-47.18 161.26,-135.01 161.26,-251.71 0,-174.39 -135.04,-298.92 -340.86,-298.92l-271.38 0c-26.26,0 -47.22,20.95 -47.22,47.17l0 823.37c0,26.21 20.95,47.22 47.22,47.22l83.9 0c26.21,0 47.17,-21 47.17,-47.22l0 -283.18 140.31 0c3.93,0 9.19,0 14.41,0l170.45 300.24c10.49,18.35 30.15,30.15 51.15,30.15l116.66 0c23.61,0 36.74,-24.93 24.93,-44.56zm-517.91 -708l140.31 0c98.31,0 159.94,51.11 159.94,133.72 0,93.09 -69.5,135.05 -159.94,135.05l-140.31 0 0 -268.77zm758.35 -118.03l0 823.37c0,26.21 20.96,47.22 45.89,47.22l85.23 0c26.21,0 47.17,-21 47.17,-47.22l0 -823.37c0,-26.21 -20.95,-47.17 -47.17,-47.17l-85.23 0c-24.92,0 -45.89,20.95 -45.89,47.17zm645.59 705.39l415.62 -590.01c9.2,-13.08 14.46,-30.14 14.46,-47.17l0 -68.21c0,-26.21 -20.99,-47.17 -47.22,-47.17l-542.8 0c-24.92,0 -45.89,20.95 -45.89,47.17l0 70.81c0,26.22 20.96,47.22 45.89,47.22l372.34 0 -426.09 588.68c-10.48,14.41 -15.74,31.43 -15.74,48.49l0 68.17c0,26.21 20.99,47.22 47.21,47.22l576.88 0c26.22,0 47.18,-21 47.18,-47.22l0 -70.77c0,-26.21 -20.95,-47.22 -47.18,-47.22l-394.66 0zm1385.06 -361.87c-85.18,-19.67 -201.89,-35.4 -201.89,-137.65 0,-74.74 64.24,-114.05 138.98,-114.05 72.1,0 116.66,32.76 137.66,70.77 10.48,18.35 31.47,27.54 51.14,22.28l82.59 -19.68c28.86,-7.82 44.6,-39.29 31.47,-65.51 -52.43,-106.22 -161.26,-163.91 -293.7,-163.91 -191.42,0 -323.81,108.83 -323.81,281.89 0,127.18 61.62,218.95 246.45,264.83 145.57,36.7 249.14,43.28 249.14,133.72 0,79.97 -73.43,115.38 -165.19,115.38 -102.29,0 -157.33,-43.28 -183.58,-87.85 -10.49,-18.34 -32.76,-26.21 -53.76,-19.67l-82.58 26.21c-27.54,7.87 -40.67,39.34 -27.54,65.55 60.3,116.7 198,170.46 348.74,170.46 241.27,0 342.2,-138.98 342.2,-283.18 0,-146.85 -78.65,-209.8 -296.31,-259.62zm1421.79 68.17c0,-268.77 -195.35,-475.91 -466.76,-475.91 -271.38,0 -465.44,207.14 -465.44,475.91 0,268.77 194.06,474.64 465.44,474.64 93.1,0 177,-23.61 246.49,-65.56l70.81 70.82c13.09,13.08 35.41,13.08 49.82,0l56.36 -56.4c14.41,-14.42 14.41,-35.41 0,-49.82l-62.91 -64.24c66.84,-81.29 106.18,-188.8 106.18,-309.43zm-466.76 305.5c-188.8,0 -288.44,-153.39 -288.44,-305.5 0,-152.06 99.64,-305.46 288.44,-305.46 190.13,0 288.44,153.4 288.44,305.46 0,65.55 -18.34,129.83 -53.75,183.58l-107.51 -108.83c-14.41,-13.13 -36.69,-14.42 -49.82,0l-57.68 56.35c-13.09,13.13 -13.09,35.41 0,49.83l100.97 100.96c-35.41,14.42 -74.75,23.61 -120.64,23.61zm1324.76 -764.35c-24.93,0 -45.89,20.95 -45.89,47.17l0 508.72c0,152.1 -94.42,208.47 -194.06,208.47 -100.97,0 -194.06,-56.36 -194.06,-208.47l0 -508.72c0,-26.21 -20.95,-47.17 -47.18,-47.17l-83.89 0c-26.26,0 -47.22,20.95 -47.22,47.17l0 532.32c0,216.35 132.4,354 372.34,354 239.95,0 371.02,-137.65 371.02,-354l0 -532.32c0,-26.21 -20.95,-47.17 -45.89,-47.17l-85.18 0zm1050.69 917.75l97.02 0c23.61,0 40.63,-23.61 32.8,-47.22l-298.96 -832.52c-9.15,-22.28 -30.14,-38.02 -55.04,-38.02l-136.37 0c-24.89,0 -47.22,15.74 -55.09,38.02l-300.23 832.52c-7.87,23.61 9.19,47.22 34.12,47.22l96.98 0c24.93,0 47.21,-15.75 55.08,-39.34l48.49 -142.92 377.6 0 48.54 142.92c7.86,23.6 30.14,39.34 55.04,39.34zm-427.42 -340.87l135.04 -397.28 135.05 397.28 -270.09 0zm1070.4 -576.88l-238.62 0c-24.93,0 -45.89,20.95 -45.89,47.17l0 823.37c0,26.21 20.95,47.22 45.89,47.22l238.62 0c306.79,0 489.05,-188.81 489.05,-458.9 0,-270.05 -182.26,-458.85 -489.05,-458.85zm0 752.55l-106.22 0 0 -587.36 106.22 0c167.81,0 310.72,89.16 310.72,293.66 0,204.54 -142.91,293.7 -310.72,293.7zm1430.95 120.64l-198 -322.56c99.64,-47.18 161.26,-135.01 161.26,-251.71 0,-174.39 -135.05,-298.92 -340.87,-298.92l-271.38 0c-26.25,0 -47.21,20.95 -47.21,47.17l0 823.37c0,26.21 20.95,47.22 47.21,47.22l83.9 0c26.21,0 47.18,-21 47.18,-47.22l0 -283.18 140.3 0c3.94,0 9.2,0 14.42,0l170.45 300.24c10.48,18.35 30.15,30.15 51.15,30.15l116.66 0c23.61,0 36.73,-24.93 24.93,-44.56zm-517.91 -708l140.3 0c98.32,0 159.95,51.11 159.95,133.72 0,93.09 -69.5,135.05 -159.95,135.05l-140.3 0 0 -268.77zm758.35 -118.03l0 823.37c0,26.21 20.95,47.22 45.89,47.22l85.23 0c26.21,0 47.17,-21 47.17,-47.22l0 -823.37c0,-26.21 -20.95,-47.17 -47.17,-47.17l-85.23 0c-24.93,0 -45.89,20.95 -45.89,47.17z"/>
  </g>
  <g>
   <path class="fil0" d="M319.52 7996.93c-146.27,0 -227.97,-119.36 -227.97,-241.43 0,-122.08 81.71,-241.43 227.97,-241.43 68.24,0 122.98,26.02 161.57,66.4 8.09,8.1 20.65,9.89 30.54,3.63l34.07 -22.45c12.56,-8.1 15.3,-26.03 4.52,-36.81 -56.57,-59.25 -137.34,-95.16 -230.71,-95.16 -185.76,0 -319.51,141.85 -319.51,325.82 0,184.01 133.75,324.92 319.51,324.92 93.37,0 174.13,-35.91 230.71,-94.26 10.78,-10.74 8.04,-28.72 -4.52,-36.81l-34.07 -22.4c-9.89,-7.2 -22.45,-5.42 -30.54,3.57 -38.59,40.38 -93.33,66.41 -161.57,66.41zm773.71 43.1l-132.86 -234.28c73.61,-31.39 113.09,-96.01 113.09,-171.4 0,-108.62 -81.65,-193 -225.29,-193l-169.61 0c-13.46,0 -24.24,10.78 -24.24,24.24l0 579.81c0,13.46 10.78,24.24 24.24,24.24l42.17 0c12.57,0 23.35,-10.78 23.35,-24.24l0 -218.09 104.1 0c8.1,0 16.19,0 24.24,-0.9l119.41 221.67c6.26,13.46 19.72,21.55 34.96,21.55l49.37 0c15.3,0 24.24,-16.14 17.08,-29.6zm-349.16 -294.43l0 -222.56 104.1 0c86.18,0 133.75,43.95 133.75,111.3 0,67.3 -47.57,111.25 -133.75,111.25l-104.1 0zm989.08 -286.28l-219.93 327.61 -219.87 -327.61c-8.09,-11.66 -19.73,-17.97 -33.23,-17.97l-44.85 0c-13.46,0 -24.24,10.78 -24.24,24.24l0 579.81c0,13.46 10.78,24.24 24.24,24.24l42.17 0c12.56,0 23.34,-10.78 23.34,-24.24l0 -438.02 210.04 309.67c4.47,5.37 9.84,8.99 17.04,8.99l10.78 0c7.15,0 13.46,-3.62 17.03,-8.99l210.04 -309.67 0 438.02c0,13.46 10.78,24.24 23.35,24.24l42.17 0c13.46,0 24.24,-10.78 24.24,-24.24l0 -579.81c0,-13.46 -10.78,-24.24 -24.24,-24.24l-44.9 0c-12.56,0 -25.13,6.31 -33.18,17.97zm462.24 -82.59l-245.94 758.42c-2.68,10.78 4.47,20.65 15.25,20.65l35.01 0c14.36,0 26.03,-8.99 30.5,-21.55l245.94 -758.42c2.68,-10.78 -4.47,-20.66 -15.25,-20.66l-35.01 0c-14.36,0 -26.03,8.1 -30.5,21.56zm633.65 663.3l-132.86 -234.28c73.61,-31.39 113.09,-96.01 113.09,-171.4 0,-108.62 -81.65,-193 -225.29,-193l-169.61 0c-13.46,0 -24.24,10.78 -24.24,24.24l0 579.81c0,13.46 10.78,24.24 24.24,24.24l42.18 0c12.56,0 23.34,-10.78 23.34,-24.24l0 -218.09 104.1 0c8.1,0 16.19,0 24.25,-0.9l119.4 221.67c6.26,13.46 19.72,21.55 34.96,21.55l49.37 0c15.3,0 24.24,-16.14 17.08,-29.6zm-349.16 -294.43l0 -222.56 104.1 0c86.18,0 133.75,43.95 133.75,111.3 0,67.3 -47.57,111.25 -133.75,111.25l-104.1 0zm673.14 -25.12c-79.91,-17.93 -156.19,-30.5 -156.19,-110.37 0.89,-50.27 40.38,-90.69 89.74,-96.06 68.25,-6.26 105.05,21.55 122.98,55.63 5.37,9.89 16.14,15.3 26.92,12.57l42.22 -9.84c14.36,-3.62 22.4,-19.77 16.14,-33.23 -31.44,-69.98 -99.63,-109.52 -180.39,-109.52 -116.72,0 -207.36,74.5 -207.36,180.44 0,81.65 28.71,148.06 155.26,178.6 99.64,24.24 175.92,27.81 175.92,113.09 0,64.62 -60.1,94.22 -128.34,94.22 -70.87,0 -114.89,-31.39 -131.92,-66.4 -5.41,-10.78 -17.98,-15.25 -28.76,-11.67l-42.17 13.46c-14.36,4.47 -21.55,19.77 -15.25,32.33 38.58,81.66 129.23,116.67 216.3,116.67 161.56,0 221.71,-97.84 221.71,-185.8 0,-101.43 -54.78,-145.38 -176.82,-174.13z"/>
   <path class="fil0" d="M3955.42 7737.57c53.84,-26.92 84.38,-75.39 84.38,-135.54 0,-96.95 -71.82,-172.35 -189.38,-172.35 -77.18,0 -149,41.32 -181.29,107.73 -6.31,14.35 1.79,30.49 16.14,34.11l35.91 8.05c10.78,2.68 22.4,-2.68 26.92,-12.57 15.25,-29.59 46.64,-57.41 102.31,-57.41 72.71,0 105,48.47 105,100.53 0,76.29 -57.41,99.63 -110.41,99.63l-33.19 0c-10.78,0 -19.77,8.94 -19.77,19.73l0 35.9c0,10.79 8.99,19.73 19.77,19.73l33.19 0c53.88,0 134.64,16.18 134.64,98.73 0,78.08 -52.05,116.72 -129.23,116.72 -69.14,0 -106.83,-31.44 -122.08,-60.15 -4.47,-9.89 -15.25,-14.36 -26.03,-12.56l-38.58 8.94c-14.36,3.62 -22.45,18.87 -16.14,32.33 28.71,67.3 111.3,111.3 202.84,111.3 137.33,0 218.09,-82.6 218.09,-196.58 0,-70.87 -40.38,-122.03 -113.09,-146.27zm361.68 -289.91l-162.41 109.47c-10.78,7.19 -13.46,21.55 -7.2,32.33l16.14 25.13c7.19,11.67 22.45,15.25 33.23,8.09l98.74 -66.45 0 489.17c0,13.46 10.78,24.24 24.24,24.24l41.27 0c13.46,0 24.24,-10.78 24.24,-24.24l0 -579.81c0,-13.46 -10.78,-24.24 -24.24,-24.24l-21.55 0c-8.05,0 -15.25,2.72 -22.45,6.31zm341.11 541.22c156.15,-187.59 250.42,-273.76 250.42,-373.39 0,-104.11 -75.4,-185.81 -177.72,-185.81 -89.79,0 -163.35,45.79 -193.9,130.17 -4.47,13.46 3.58,28.72 17.09,31.39l37.7 8.99c10.73,2.68 23.29,-3.57 26.92,-15.25 13.46,-36.8 43.95,-75.39 102.31,-75.39 64.62,0 98.74,44.85 98.74,105.9 0,64.62 -82.6,153.47 -151.69,235.17 -56.56,66.4 -81.7,95.12 -127.49,145.38 -6.26,7.2 -10.74,17.08 -10.74,26.92l0 22.45c0,13.46 10.74,24.24 24.25,24.24l339.23 0c12.56,0 23.34,-10.78 23.34,-24.24l0 -33.23c0,-12.56 -10.78,-23.3 -23.34,-23.3l-235.13 0zm546.59 -333.91c-14.36,0 -26.92,1.79 -38.59,4.52l137.29 -193.01c8.09,-10.78 0,-25.12 -12.56,-25.12l-44.85 0c-16.14,0 -30.5,8.09 -39.49,20.65l-152.57 220.78c-23.35,34.11 -70.03,97.84 -70.03,184.91 0,113.98 84.38,212.72 220.82,212.72 136.39,0 220.77,-98.74 220.77,-212.72 0,-127.45 -98.73,-212.73 -220.77,-212.73zm0 345.58c-74.49,0 -132.86,-54.78 -132.86,-132.86 0,-78.97 57.46,-132.82 132.86,-132.82 69.98,0 132.82,51.16 132.82,132.82 0,78.08 -58.31,132.86 -132.82,132.86zm279.13 -534.96l0 33.23c0,12.56 10.73,23.34 23.3,23.34l265.67 0 -209.11 525.93c-4.47,9.88 3.58,21.55 15.26,21.55l50.26 0c9.89,0 18.87,-6.26 22.45,-15.25l211.83 -534.96c2.68,-6.27 4.47,-13.46 4.47,-20.61l0 -33.23c0,-13.46 -10.78,-24.24 -24.24,-24.24l-336.59 0c-12.57,0 -23.3,10.78 -23.3,24.24z"/>
  </g>
  <g>
   <path class="fil0" d="M9397.3 8040.04l-132.87 -234.28c73.61,-31.39 113.1,-96.01 113.1,-171.4 0,-108.62 -81.66,-193 -225.29,-193l-169.61 0c-13.46,0 -24.25,10.78 -24.25,24.24l0 579.81c0,13.46 10.79,24.24 24.25,24.24l42.17 0c12.56,0 23.34,-10.78 23.34,-24.24l0 -218.09 104.11 0c8.09,0 16.18,0 24.24,-0.9l119.4 221.67c6.26,13.46 19.72,21.55 34.97,21.55l49.37 0c15.29,0 24.24,-16.14 17.08,-29.6zm-349.17 -294.43l0 -222.56 104.11 0c86.17,0 133.75,43.95 133.75,111.3 0,67.3 -47.58,111.25 -133.75,111.25l-104.11 0zm1044.75 9.89c0,-183.97 -132.86,-325.82 -318.66,-325.82 -186.66,0 -319.51,141.85 -319.51,325.82 0,184.01 132.86,324.92 319.51,324.92 67.35,0 128.39,-18.87 178.65,-51.16l50.26 50.27c8.94,9.88 24.2,9.88 33.19,0.89l23.34 -23.34c9.89,-8.99 9.89,-24.24 0,-34.12l-46.69 -46.64c50.26,-57.46 79.91,-134.65 79.91,-220.82zm-318.66 241.43c-147.16,0 -227.97,-119.36 -227.97,-241.43 0,-122.08 80.81,-241.43 227.97,-241.43 146.32,0 227.08,119.36 227.08,241.43 0,56.56 -17.03,113.09 -51.16,157.09l-81.65 -81.7c-8.99,-9.88 -24.24,-9.88 -34.12,0l-22.45 22.45c-9.84,8.99 -9.84,24.24 0,34.12l78.13 78.96c-32.33,18.83 -70.92,30.5 -115.82,30.5zm511.63 -8.94l0 -202.89 211.83 0c13.46,0 24.24,-10.74 24.24,-24.2l0 -33.23c0,-13.46 -10.78,-24.24 -24.24,-24.24l-211.83 0 0 -180.39 232.44 0c13.5,0 24.24,-10.78 24.24,-24.24l0 -33.23c0,-13.46 -10.74,-24.24 -24.24,-24.24l-298.86 0c-12.56,0 -23.34,10.78 -23.34,24.24l0 579.81c0,13.46 10.78,24.24 23.34,24.24l306.95 0c13.46,0 24.24,-10.78 24.24,-24.24l0 -34.12c0,-12.56 -10.78,-23.29 -24.24,-23.29l-240.54 0z"/>
   <path class="fil0" d="M11198.64 7996.93c-146.28,0 -227.97,-119.36 -227.97,-241.43 0,-122.08 81.7,-241.43 227.97,-241.43 68.24,0 122.97,26.02 161.56,66.4 8.09,8.1 20.66,9.89 30.54,3.63l34.07 -22.45c12.57,-8.1 15.3,-26.03 4.52,-36.81 -56.56,-59.25 -137.33,-95.16 -230.7,-95.16 -185.76,0 -319.51,141.85 -319.51,325.82 0,184.01 133.75,324.92 319.51,324.92 93.37,0 174.13,-35.91 230.7,-94.26 10.78,-10.74 8.05,-28.72 -4.52,-36.81l-34.07 -22.4c-9.88,-7.2 -22.45,-5.42 -30.54,3.57 -38.59,40.38 -93.32,66.41 -161.56,66.41zm330.33 -531.34l0 579.81c0,13.46 10.74,24.24 24.24,24.24l34.07 0c13.46,0 23.35,-10.78 23.35,-24.24l0 -579.81c0,-13.46 -9.89,-24.24 -23.35,-24.24l-34.07 0c-13.5,0 -24.24,10.78 -24.24,24.24zm223.5 604.05l33.18 0c13.46,0 24.25,-10.78 24.25,-24.24l0 -406.58c0,-13.46 -10.79,-24.24 -24.25,-24.24l-33.18 0c-13.46,0 -24.24,10.78 -24.24,24.24l0 406.58c0,13.46 10.78,24.24 24.24,24.24zm66.4 -652.52c-11.66,0 -23.34,7.19 -28.71,17.97l-42.22 90.65c-3.57,8.09 2.68,17.03 10.78,17.03l28.72 0c8.09,0 15.3,-3.57 19.77,-10.78l62.83 -89.75c7.14,-10.73 0,-25.12 -13.46,-25.12l-37.71 0zm329.4 186.7c-69.09,0 -113.09,34.11 -140.01,74.49l0 -39.48c0,-13.46 -10.79,-24.24 -24.25,-24.24l-34.11 0c-13.46,0 -23.3,10.78 -23.3,24.24l0 406.58c0,13.46 9.84,24.24 23.3,24.24l34.11 0c13.46,0 24.25,-10.78 24.25,-24.24l0 -236.96c0,-52.94 34.11,-127.45 120.29,-127.45 85.23,0 113.09,63.73 113.09,127.45l0 236.96c0,13.46 10.73,24.24 23.3,24.24l34.11 0c13.46,0 24.24,-10.78 24.24,-24.24l0 -260.3c0,-96.91 -72.71,-181.29 -175.02,-181.29zm316.88 465.83l33.18 0c13.46,0 24.24,-10.78 24.24,-24.24l0 -406.58c0,-13.46 -10.78,-24.24 -24.24,-24.24l-33.18 0c-13.46,0 -24.25,10.78 -24.25,24.24l0 406.58c0,13.46 10.79,24.24 24.25,24.24zm16.13 -534.91c26.03,0 46.69,-20.66 46.69,-46.69 0,-26.03 -20.65,-46.69 -46.69,-46.69 -25.12,0 -46.69,20.65 -46.69,46.69 0,26.02 21.56,46.69 46.69,46.69zm369.78 468.51c-89.75,0 -154.37,-68.25 -154.37,-160.67 0,-93.32 64.62,-161.57 154.37,-161.57 50.26,0 93.37,21.56 120.29,56.57 7.15,8.94 20.65,11.67 30.49,6.26l27.82 -15.25c12.56,-7.2 16.18,-24.24 7.19,-35.91 -42.17,-53.84 -107.67,-88.85 -185.8,-88.85 -137.29,0 -238.75,106.83 -238.75,238.75 0,131.02 101.46,237.85 238.75,237.85 78.13,0 143.63,-35.01 185.8,-88.85 8.99,-11.67 5.37,-28.71 -7.19,-35.91l-27.82 -15.25c-9.84,-5.42 -23.34,-2.68 -30.49,6.26 -26.92,35.01 -70.03,56.57 -120.29,56.57zm633.65 -364.41l0 39.48c-33.18,-42.17 -86.13,-74.49 -165.14,-74.49 -141.81,0 -226.19,119.4 -226.19,238.75 0,118.46 84.38,237.85 226.19,237.85 79.01,0 131.97,-32.33 165.14,-74.49l0 39.48c0,13.46 10.78,24.24 24.24,24.24l34.12 0c13.46,0 24.24,-10.78 24.24,-24.24l0 -406.58c0,-13.46 -10.78,-24.24 -24.24,-24.24l-34.12 0c-13.46,0 -24.24,10.78 -24.24,24.24zm-157.05 364.41c-94.22,0 -150.79,-69.14 -150.79,-160.67 0,-92.43 56.56,-161.57 150.79,-161.57 100.53,0 157.05,70.92 157.05,161.57 0,89.75 -56.52,160.67 -157.05,160.67z"/>
   <path class="fil0" d="M14472.95 7459.32l-219.92 327.61 -219.88 -327.61c-8.09,-11.66 -19.72,-17.97 -33.23,-17.97l-44.85 0c-13.46,0 -24.24,10.78 -24.24,24.24l0 579.81c0,13.46 10.78,24.24 24.24,24.24l42.17 0c12.56,0 23.35,-10.78 23.35,-24.24l0 -438.02 210.03 309.67c4.47,5.37 9.84,8.99 17.04,8.99l10.78 0c7.15,0 13.46,-3.62 17.03,-8.99l210.04 -309.67 0 438.02c0,13.46 10.78,24.24 23.35,24.24l42.17 0c13.46,0 24.24,-10.78 24.24,-24.24l0 -579.81c0,-13.46 -10.78,-24.24 -24.24,-24.24l-44.9 0c-12.56,0 -25.13,6.31 -33.18,17.97zm426.34 144.49c-133.75,0 -229.81,106.83 -229.81,238.75 0,131.02 93.37,237.85 244.16,237.85 68.2,0 126.56,-22.45 167.83,-63.72 9.89,-10.78 8.09,-28.71 -5.37,-36.81l-26.92 -17.03c-8.98,-6.31 -20.65,-5.42 -28.75,1.79 -26.92,24.24 -65.51,38.59 -106.79,38.59 -89.75,0 -144.53,-51.16 -157.99,-125.66l333.02 0c17.03,0 31.39,-14.36 31.39,-31.44 4.47,-150.79 -105,-242.32 -220.77,-242.32zm-143.64 202.84c12.57,-75.39 65.51,-125.66 143.64,-125.66 77.18,0 124.76,49.37 135.49,125.66l-279.13 0zm180.44 -389.54c-11.67,0 -23.34,7.19 -28.76,17.97l-42.17 90.65c-3.57,8.09 2.68,17.03 10.78,17.03l28.71 0c8.1,0 15.26,-3.57 19.77,-10.78l62.83 -89.75c7.15,-10.73 0,-25.12 -13.46,-25.12l-37.7 0zm639.96 48.47l0 212.72c-34.11,-42.17 -87.07,-74.49 -166.08,-74.49 -141.81,0 -226.19,119.4 -226.19,238.75 0,118.46 84.38,237.85 226.19,237.85 79.01,0 131.97,-32.33 166.08,-74.49l0 39.48c0,13.46 10.74,24.24 23.3,24.24l34.12 0c13.46,0 24.24,-10.78 24.24,-24.24l0 -579.81c0,-13.46 -10.78,-24.24 -24.24,-24.24l-34.12 0c-12.56,0 -23.3,10.78 -23.3,24.24zm-157.99 537.65c-93.32,0 -150.79,-69.14 -150.79,-160.67 0,-92.43 57.46,-161.57 150.79,-161.57 100.53,0 157.99,70.92 157.99,161.57 0,89.75 -57.46,160.67 -157.99,160.67zm381.49 66.4l33.18 0c13.46,0 24.24,-10.78 24.24,-24.24l0 -406.58c0,-13.46 -10.78,-24.24 -24.24,-24.24l-33.18 0c-13.46,0 -24.24,10.78 -24.24,24.24l0 406.58c0,13.46 10.78,24.24 24.24,24.24zm16.14 -534.91c26.02,0 46.69,-20.66 46.69,-46.69 0,-26.03 -20.66,-46.69 -46.69,-46.69 -25.13,0 -46.69,20.65 -46.69,46.69 0,26.02 21.55,46.69 46.69,46.69zm369.77 468.51c-89.75,0 -154.37,-68.25 -154.37,-160.67 0,-93.32 64.62,-161.57 154.37,-161.57 50.27,0 93.37,21.56 120.29,56.57 7.15,8.94 20.66,11.67 30.5,6.26l27.81 -15.25c12.57,-7.2 16.19,-24.24 7.2,-35.91 -42.17,-53.84 -107.68,-88.85 -185.81,-88.85 -137.28,0 -238.75,106.83 -238.75,238.75 0,131.02 101.47,237.85 238.75,237.85 78.13,0 143.64,-35.01 185.81,-88.85 8.99,-11.67 5.37,-28.71 -7.2,-35.91l-27.81 -15.25c-9.84,-5.42 -23.35,-2.68 -30.5,6.26 -26.92,35.01 -70.02,56.57 -120.29,56.57zm633.65 -364.41l0 39.48c-33.18,-42.17 -86.12,-74.49 -165.14,-74.49 -141.8,0 -226.18,119.4 -226.18,238.75 0,118.46 84.38,237.85 226.18,237.85 79.02,0 131.97,-32.33 165.14,-74.49l0 39.48c0,13.46 10.78,24.24 24.24,24.24l34.12 0c13.46,0 24.24,-10.78 24.24,-24.24l0 -406.58c0,-13.46 -10.78,-24.24 -24.24,-24.24l-34.12 0c-13.46,0 -24.24,10.78 -24.24,24.24zm-157.04 364.41c-94.22,0 -150.8,-69.14 -150.8,-160.67 0,-92.43 56.57,-161.57 150.8,-161.57 100.53,0 157.04,70.92 157.04,161.57 0,89.75 -56.51,160.67 -157.04,160.67z"/>
   <path class="fil0" d="M17376.53 7988.88c156.15,-187.59 250.42,-273.76 250.42,-373.39 0,-104.11 -75.39,-185.81 -177.71,-185.81 -89.8,0 -163.36,45.79 -193.9,130.17 -4.47,13.46 3.57,28.72 17.08,31.39l37.7 8.99c10.73,2.68 23.3,-3.57 26.92,-15.25 13.46,-36.8 43.95,-75.39 102.31,-75.39 64.62,0 98.74,44.85 98.74,105.9 0,64.62 -82.6,153.47 -151.68,235.17 -56.57,66.4 -81.7,95.12 -127.5,145.38 -6.26,7.2 -10.73,17.08 -10.73,26.92l0 22.45c0,13.46 10.73,24.24 24.24,24.24l339.23 0c12.56,0 23.35,-10.78 23.35,-24.24l0 -33.23c0,-12.56 -10.79,-23.3 -23.35,-23.3l-235.13 0zm477.46 0c156.15,-187.59 250.41,-273.76 250.41,-373.39 0,-104.11 -75.39,-185.81 -177.71,-185.81 -89.8,0 -163.36,45.79 -193.9,130.17 -4.47,13.46 3.57,28.72 17.08,31.39l37.7 8.99c10.74,2.68 23.3,-3.57 26.92,-15.25 13.46,-36.8 43.96,-75.39 102.31,-75.39 64.62,0 98.74,44.85 98.74,105.9 0,64.62 -82.6,153.47 -151.68,235.17 -56.56,66.4 -81.7,95.12 -127.5,145.38 -6.26,7.2 -10.73,17.08 -10.73,26.92l0 22.45c0,13.46 10.73,24.24 24.24,24.24l339.23 0c12.57,0 23.35,-10.78 23.35,-24.24l0 -33.23c0,-12.56 -10.78,-23.3 -23.35,-23.3l-235.12 0zm564.52 -132.86c14.35,0 26.92,-1.79 38.58,-4.47l-138.22 192.95c-7.19,10.78 0,25.13 13.46,25.13l44.85 0c16.19,0 30.55,-8.09 39.54,-20.66l152.57 -221.66c23.3,-34.12 69.98,-96.95 69.98,-184.02 0,-113.99 -84.38,-213.62 -220.77,-213.62 -136.44,0 -220.82,99.63 -220.82,213.62 0,127.45 98.74,212.73 220.82,212.73zm0 -346.43c74.49,0 132.81,55.63 132.81,133.7 0,79.02 -57.41,132.87 -132.81,132.87 -70.03,0 -132.87,-51.17 -132.87,-132.87 0,-78.08 58.36,-133.7 132.87,-133.7zm499 154.37c-46.69,0 -84.38,16.14 -113.99,37.7l20.61 -179.5 237.86 0c13.46,0 24.24,-10.78 24.24,-23.34l0 -33.23c0,-13.46 -10.78,-24.24 -24.24,-24.24l-286.28 0c-11.67,0 -22.45,8.99 -23.35,21.55l-34.11 294.38c-1.8,11.67 6.31,22.45 17.97,26.02l29.6 7.2c12.57,2.68 25.13,0 35.01,-8.09 22.41,-18.83 60.99,-39.49 107.68,-39.49 73.61,0 127.45,44.01 127.45,124.77 0,78.08 -55.63,132.86 -132.81,132.86 -68.25,0 -105.05,-31.44 -120.29,-60.15 -4.47,-9.89 -15.26,-15.25 -26.03,-12.56l-38.58 8.94c-14.36,2.72 -22.45,18.87 -16.14,33.23 28.71,66.4 110.41,110.41 201.05,110.41 137.33,0 219.87,-98.74 219.87,-212.72 0,-115.78 -82.55,-203.74 -205.52,-203.74zm446.02 -216.3l-162.42 109.47c-10.78,7.19 -13.46,21.55 -7.19,32.33l16.13 25.13c7.2,11.67 22.45,15.25 33.23,8.09l98.74 -66.45 0 489.17c0,13.46 10.78,24.24 24.24,24.24l41.28 0c13.46,0 24.24,-10.78 24.24,-24.24l0 -579.81c0,-13.46 -10.78,-24.24 -24.24,-24.24l-21.55 0c-8.05,0 -15.26,2.72 -22.45,6.31z"/>
  </g>
 </g>
</svg>
