<?xml version="1.0" encoding="UTF-8"?>
<!DOCTYPE svg PUBLIC "-//W3C//DTD SVG 1.1//EN" "http://www.w3.org/Graphics/SVG/1.1/DTD/svg11.dtd">
<!-- Creator: CorelDRAW 2021 (64-Bit) -->
<svg xmlns="http://www.w3.org/2000/svg" xml:space="preserve" width="76.2882mm" height="53.7236mm" version="1.1" style="shape-rendering:geometricPrecision; text-rendering:geometricPrecision; image-rendering:optimizeQuality; fill-rule:evenodd; clip-rule:evenodd"
viewBox="0 0 3730.1 2626.8"
 xmlns:xlink="http://www.w3.org/1999/xlink"
 xmlns:xodm="http://www.corel.com/coreldraw/odm/2003">
 <defs>
  <style type="text/css">
   <![CDATA[
    .fil0 {fill:#FEFEFE}
   ]]>
  </style>
 </defs>
 <g id="Layer_x0020_1">
  <metadata id="CorelCorpID_0Corel-Layer"/>
  <g id="_1932800503264">
   <path class="fil0" d="M188.25 30.64c16.46,24.57 39.81,45.37 61.03,65.94l8.9 8.61c0.63,0.65 1.5,1.61 2.12,2.26l8.63 8.88c0.65,0.63 1.6,1.51 2.24,2.13l43.79 43.79c0.64,0.62 1.61,1.49 2.25,2.12 0.65,0.62 1.61,1.49 2.25,2.12 0.31,0.3 4.87,4.95 6.5,6.64l115.88 116.15c3.9,3.9 2.43,2.28 6.71,6.43 1.53,1.47 6.59,6.41 6.66,6.48 4.2,4.26 8.41,8.7 12.87,13.4l1031.84 1034.59c5.54,5.53 7.56,6.64 13.51,12.77l12.91 13.35c5.56,5.28 6.05,5.54 11.07,10.83 3.6,3.78 2.78,3.28 6.32,6.81l89.26 90.24c0.59,0.69 1.41,1.69 2.01,2.38 0.85,0.95 3.32,3.64 4.2,4.56l61.49 61.09c0.88,0.91 3.37,3.59 4.26,4.5l65.61 65.72c5.09,5.3 1.75,2.21 6.51,6.63 45.88,42.44 126.87,42.88 173.67,2.08 0.68,-0.59 1.64,-1.47 2.3,-2.08l85.14 -85.61c0.91,-0.89 3.6,-3.36 4.5,-4.26l30.53 -30.76c0.63,-0.65 1.5,-1.61 2.13,-2.26 0.3,-0.3 4.94,-4.86 6.63,-6.49l71.78 -72.71c0.65,-0.62 1.61,-1.48 2.26,-2.11l98.2 -98.81c0.63,-0.65 1.48,-1.62 2.1,-2.28l15.43 -15.22c151.1,-145.58 295.25,-296.47 443.76,-444.97 138.98,-138.98 274.75,-274.75 413.72,-413.73l307.82 -309.48c3.04,-2.95 2.52,-2.34 6.63,-6.51l72.07 -72.4c10.51,-10.44 18.15,-15.39 21.74,-30.8 -20.76,-13.91 -47.47,-18.34 -71.48,-24.83 -12.81,-3.46 -14.01,-5.81 -29.21,-5.81l-3147.82 0 -100.69 30.64z"/>
   <path class="fil0" d="M188.25 2596.17c8.53,2.27 6.99,2.78 9.39,3.74 5.22,2.1 6.09,2.42 12.5,5.03l9.29 3.83c0.97,0.39 2.09,0.92 3.07,1.32l66.44 16.72 3152.21 0c14.21,0 12.01,-3.32 24.12,-6.51 26.44,-6.98 50.86,-9.85 72.18,-24.12 -3.87,-16.62 -2.87,-12.72 -12.63,-22.39 -0.64,-0.64 -1.66,-1.45 -2.31,-2.07l-15.36 -15.27c-0.64,-0.65 -1.57,-1.54 -2.21,-2.17l-13.27 -13.02c-0.62,-0.65 -1.49,-1.61 -2.11,-2.26l-164 -164.35c-0.61,-0.65 -1.49,-1.61 -2.1,-2.27 -110.21,-118.72 -228.45,-229.59 -343.11,-344.24 -24.82,-24.83 -533.03,-540.96 -563.67,-561.48 -30.58,20.48 -258.51,256.03 -316.29,314.16l-106.14 68.98c-10.1,4.42 -35.4,12.2 -42.97,13.94 -70.83,16.38 -142.77,16.34 -212.35,-12.67l-18.44 -7.82c-11.36,-4.67 -9.28,-3.5 -20.56,-10.08 -13.35,-7.8 -21.73,-13.52 -34.85,-22.07l-10.25 -7.26c-0.72,-0.56 -1.72,-1.37 -2.43,-1.95l-46.75 -45.19c-51.53,-51.53 -260.51,-268.79 -292.23,-290.04 -10.01,6.71 -758.24,749.03 -838.99,837.8l-157.2 158.01c-0.65,0.63 -1.61,1.5 -2.25,2.12 -0.66,0.63 -1.6,1.51 -2.24,2.14l-61.17 61.41c-0.64,0.63 -1.61,1.5 -2.26,2.12l-39.32 39.49c-0.64,0.63 -1.62,1.48 -2.27,2.1l-19.44 24.35z"/>
   <path class="fil0" d="M2569.92 1313.4c10.97,16.39 51.05,54.59 68.29,71.8l70.2 69.9c70.69,67.18 69.52,71.41 104.67,105.48l520.36 521.6c51.16,51.04 327.7,340.47 366.01,360.76 3.84,-16.49 12.39,-32.57 18.63,-51.42 6.33,-19.13 11.84,-33.28 12.01,-61.08l0 -1.33 0 -2031.4c0,-43.46 -21.77,-75.72 -30.65,-113.83 -29.61,15.67 -49.72,43.16 -73.33,66.77 -87.91,87.91 -201.78,194.67 -282.25,282.5 -2.9,3.17 -5.97,6.91 -8.25,9.27 -0.62,0.66 -1.53,1.57 -2.17,2.21l-6.84 6.29c-4.18,3.95 -4.81,4.59 -8.75,8.76l-26.06 26.47c-0.63,0.65 -1.52,1.59 -2.16,2.22l-41.62 41.55c-0.62,0.66 -1.52,1.59 -2.15,2.22l-21.9 21.9c-0.64,0.64 -1.57,1.53 -2.22,2.16 -7.22,6.99 -10.53,10.3 -17.51,17.51l-43.79 43.78c-0.62,0.65 -1.52,1.59 -2.15,2.22l-70.17 69.93c-4.81,4.57 -3.96,3.36 -8.97,8.54l-26.1 26.44c-0.61,0.65 -1.46,1.63 -2.06,2.3 -0.62,0.66 -1.49,1.62 -2.11,2.28l-253.17 254.67c-0.64,0.63 -1.59,1.52 -2.24,2.14l-126.51 127.42c-26.23,24.92 -80.03,74.6 -97.02,99.98z"/>
   <path class="fil0" d="M-0 297.7l0 2031.4c0,43.46 21.77,75.72 30.65,113.83 29.61,-15.67 49.72,-43.16 73.33,-66.77l280.19 -280.2c12.74,-12.73 22.32,-22.29 35.06,-34.99 7.17,-7.16 9.88,-10.51 16.93,-18.09l45.92 -46.01c0.62,-0.66 1.52,-1.59 2.15,-2.22l41.63 -41.57c0.63,-0.64 1.52,-1.58 2.16,-2.22l120.78 -120.01c3.78,-3.78 5.35,-5.95 8.4,-9.1 0.63,-0.65 1.52,-1.58 2.16,-2.22l78.5 -79.12c0.62,-0.64 1.5,-1.6 2.13,-2.24l153.25 -153.21c0.9,-0.91 3.47,-3.48 4.38,-4.37l17.51 -17.52c0.88,-0.9 3.47,-3.49 4.38,-4.38l17.51 -17.51c0.89,-0.91 3.48,-3.5 4.37,-4.38l4.52 -4.24c4.24,-4.1 4.65,-4.52 8.76,-8.76l4.24 -4.52c0.9,-0.91 3.47,-3.48 4.38,-4.38l65.02 -66.31c0.62,-0.66 1.47,-1.64 2.08,-2.3l85.51 -85.24c12.65,-13.05 27.04,-34.29 44.28,-38.9 -1.51,-18.18 -10.5,-22.55 -22.33,-34.58l-237.98 -239.23c-24.2,-23.45 19.29,19.47 -4.47,-4.29l-24.05 -24.11c-0.63,-0.64 -1.5,-1.6 -2.13,-2.25 -0.62,-0.65 -1.49,-1.61 -2.11,-2.26l-54.81 -54.65c-0.65,-0.63 -1.61,-1.49 -2.25,-2.12l-19.63 -19.78c-0.65,-0.62 -1.61,-1.49 -2.25,-2.12 -0.91,-0.89 -3.49,-3.47 -4.38,-4.38l-192.25 -193.01c-3.05,-3.15 -4.62,-5.32 -8.41,-9.1 -3.78,-3.78 -5.96,-5.35 -9.11,-8.41l-397.81 -398.99c-24.41,-24.42 -45.63,-45.63 -70.04,-70.05 -24.26,-24.25 -45.12,-52.87 -75.52,-68.96 -3.84,16.49 -12.39,32.57 -18.63,51.42 -6.33,19.13 -11.84,33.28 -12.01,61.08l0 1.33z"/>
  </g>
 </g>
</svg>
