<?xml version="1.0" encoding="UTF-8"?>
<!DOCTYPE svg PUBLIC "-//W3C//DTD SVG 1.1//EN" "http://www.w3.org/Graphics/SVG/1.1/DTD/svg11.dtd">
<!-- Creator: CorelDRAW 2021 (64-Bit) -->
<svg xmlns="http://www.w3.org/2000/svg" xml:space="preserve" width="41.2696mm" height="61.6515mm" version="1.1" style="shape-rendering:geometricPrecision; text-rendering:geometricPrecision; image-rendering:optimizeQuality; fill-rule:evenodd; clip-rule:evenodd"
viewBox="0 0 1407.51 2102.64"
 xmlns:xlink="http://www.w3.org/1999/xlink"
 xmlns:xodm="http://www.corel.com/coreldraw/odm/2003">
 <defs>
  <style type="text/css">
   <![CDATA[
    .fil0 {fill:#FEFEFE}
   ]]>
  </style>
 </defs>
 <g id="Layer_x0020_1">
  <metadata id="CorelCorpID_0Corel-Layer"/>
  <path class="fil0" d="M356.19 715.25c0,-65.36 -0.49,-42.05 10.25,-98.9 4.05,-21.42 11.65,-40.24 20.53,-59.9 8.81,-19.54 33.43,-61.69 47.06,-76.46 0.4,-0.44 1.01,-1.03 1.41,-1.46 11.84,-12.62 23.79,-27.96 38.07,-39.49 7.96,-6.42 14.67,-10.72 22.77,-17.45 33.27,-27.66 99.62,-56.97 141.58,-62.36 15.37,-1.97 21.66,-5.91 37.18,-5.91l57.45 0c15.34,0 20.72,3.79 34.59,5.63 14.99,1.98 19.72,3.01 32.88,7.33 29.07,9.52 59.63,20.46 83.97,36.68l46.81 33.61c15.57,11.76 27.95,27.7 41.34,41.97 32.66,34.81 70.34,117.43 76.24,167.93 4.38,37.48 4.21,69.04 0.21,106.2 -1.64,15.26 -5.64,22.48 -7.87,35.22 -3.38,19.34 -14.12,44.89 -22.85,63.32l-72.01 100.34c-86.85,83.67 -214.05,118.66 -331.07,85.41 -23.56,-6.69 -23.3,-5.25 -49.72,-16.34 -30.6,-12.86 -59.96,-31.51 -84.85,-53.03l-9.33 -7.9c-0.46,-0.39 -1.11,-0.93 -1.56,-1.32 -0.45,-0.39 -1.11,-0.93 -1.55,-1.32l-77.05 -103.91c-13.28,-27.98 -27.88,-67.21 -31.46,-97.81 -1.68,-14.45 -3.01,-23.72 -3.01,-40.07zm-356.19 -2.88c0,22.68 4.59,37.6 5.66,57.54 4.76,88.13 34.22,173.98 72.85,251.74l46.95 85.18c8.13,16.33 14.34,25.39 22.68,40.51l429.05 777.38c4.45,8.08 7.9,13.62 12.54,21.92 7.95,14.23 14.43,27.54 22.22,40.98 3.83,6.6 7.51,12.73 11.54,20.05 3.05,5.51 2.71,4.65 5.89,11.34 2.44,5.12 2.76,6.04 5.91,11.33 12.45,20.94 34.17,72.3 59.83,72.3 48.24,0 45.29,-19.66 75.97,-70.52l208.42 -377.56c7.71,-14.18 14.97,-28.36 23.52,-42.55l69.33 -126c8.38,-15.61 15.21,-25.81 23.53,-42.53l185.03 -334.89c7.66,-13.88 16.36,-26.74 22.84,-40.35l22.9 -43.17c8.07,-15.5 13.54,-28.08 21.48,-44.59 14.9,-31.02 24.85,-62.74 33.51,-95.75 2.59,-9.86 4.31,-13.36 6.54,-25.06 1.7,-8.88 3.34,-18.4 5.93,-28.54 4.05,-15.81 6.91,-40.75 7.66,-58.41 0.91,-21.56 5.73,-36.74 5.73,-60.34 0,-47.48 -7.7,-111.53 -16.5,-155.85 -2.84,-14.3 -5.76,-23.11 -8.8,-34.29l-52.46 -139.99 -40.54 -68.61c-20.05,-33.54 -48.38,-68.46 -76.3,-96.05l-57.84 -54.2c-0.43,-0.4 -1.04,-0.99 -1.47,-1.39l-7.52 -6.84c-7.29,-6.04 -16.08,-12.66 -24.92,-18.17 -10.56,-6.57 -15.49,-10.76 -24.75,-18.35 -14.37,-11.79 -48.47,-31.16 -66.41,-39.86 -64.39,-31.23 -106.37,-44.8 -174.55,-63.86 -49.76,-13.91 -116.61,-14.85 -172.19,-14.9l-2.87 0 -2.84 0 -2.82 0 -2.79 0 -2.77 0 -2.76 0c-89.36,0 -195.28,34.07 -273.64,71.06l-28.16 14.93c-17.13,10.36 -38.04,19.93 -53.53,32.63 -35.95,29.49 -60,42.16 -94.94,77.42 -7.83,7.9 -13.63,13.7 -21.55,21.54 -27.92,27.59 -56.25,62.51 -76.3,96.05 -5.59,9.36 -9.92,17.59 -16.18,26.9l-61.8 130.65c-11.26,27.54 -17.77,54.82 -23.82,85.33 -8.8,44.32 -16.5,108.37 -16.5,155.85z"/>
 </g>
</svg>
