<?xml version="1.0" encoding="UTF-8"?>
<!DOCTYPE svg PUBLIC "-//W3C//DTD SVG 1.1//EN" "http://www.w3.org/Graphics/SVG/1.1/DTD/svg11.dtd">
<!-- Creator: CorelDRAW 2021 (64-Bit) -->
<svg xmlns="http://www.w3.org/2000/svg" xml:space="preserve" width="80.4076mm" height="72.5408mm" version="1.1" style="shape-rendering:geometricPrecision; text-rendering:geometricPrecision; image-rendering:optimizeQuality; fill-rule:evenodd; clip-rule:evenodd"
viewBox="0 0 8039.7 7253.12"
 xmlns:xlink="http://www.w3.org/1999/xlink"
 xmlns:xodm="http://www.corel.com/coreldraw/odm/2003">
 <defs>
  <style type="text/css">
   <![CDATA[
    .fil0 {fill:#FEFEFE;fill-rule:nonzero}
   ]]>
  </style>
 </defs>
 <g id="Layer_x0020_1">
  <metadata id="CorelCorpID_0Corel-Layer"/>
  <g id="_1968657109040">
   <g>
    <path class="fil0" d="M4377.63 6744.96c-219.53,-89.8 -668.55,-9.98 -668.55,-9.98 179.61,-249.46 304.34,-1255.6 319.31,-1087.64 14.97,167.96 349.24,1097.62 349.24,1097.62zm930.87 -4091.13c0.78,-0.47 1.55,-0.9 2.32,-1.31 -0.77,0.41 -1.54,0.84 -2.32,1.31zm2.36 -1.33c0.74,-0.39 1.48,-0.76 2.22,-1.1 -0.74,0.34 -1.48,0.71 -2.22,1.1zm2.35 -1.16c0.73,-0.33 1.46,-0.64 2.19,-0.93 -0.73,0.29 -1.46,0.6 -2.19,0.93zm2.27 -0.97c0.72,-0.28 1.43,-0.53 2.14,-0.76 -0.71,0.23 -1.42,0.49 -2.14,0.76zm2.37 -0.84c0.69,-0.22 1.38,-0.41 2.07,-0.6 -0.69,0.18 -1.38,0.38 -2.07,0.6zm2.24 -0.64c0.69,-0.18 1.38,-0.34 2.06,-0.47 -0.68,0.13 -1.37,0.29 -2.06,0.47zm4.44 -0.86c0.72,-0.09 1.44,-0.15 2.16,-0.2 -0.71,0.05 -1.44,0.11 -2.16,0.2zm2.2 -0.2c0.7,-0.05 1.4,-0.08 2.09,-0.08 -0.7,0 -1.39,0.03 -2.09,0.08zm2.26 -0.08c0.67,0 1.33,0.02 1.99,0.05 -0.66,-0.03 -1.32,-0.05 -1.99,-0.05zm2.15 0.06c0.68,0.04 1.36,0.09 2.03,0.17 -0.67,-0.08 -1.35,-0.13 -2.03,-0.17zm2.17 0.19c0.65,0.08 1.31,0.17 1.97,0.28 -0.66,-0.11 -1.32,-0.2 -1.97,-0.28zm2.22 0.33c0.62,0.11 1.23,0.24 1.85,0.38 -0.62,-0.14 -1.23,-0.27 -1.85,-0.38zm2.08 0.43c1.35,0.32 2.7,0.71 4.03,1.17 -1.33,-0.46 -2.68,-0.85 -4.03,-1.17zm4.16 1.22c0.62,0.21 1.23,0.44 1.84,0.68 -0.61,-0.24 -1.22,-0.47 -1.84,-0.68zm2.11 0.79c0.58,0.23 1.16,0.48 1.73,0.73 -0.57,-0.25 -1.15,-0.5 -1.73,-0.73zm2.02 0.86c0.6,0.28 1.21,0.57 1.81,0.87 -0.6,-0.3 -1.21,-0.59 -1.81,-0.87zm2.01 0.98c0.61,0.31 1.22,0.64 1.83,0.97 -0.61,-0.33 -1.22,-0.66 -1.83,-0.97zm1.94 1.03c0.6,0.34 1.2,0.69 1.8,1.06 -0.6,-0.37 -1.2,-0.72 -1.8,-1.06zm1.97 1.16c0.61,0.37 1.22,0.76 1.83,1.16 -0.61,-0.4 -1.22,-0.79 -1.83,-1.16zm1.97 1.25c0.57,0.37 1.13,0.76 1.69,1.15 -0.56,-0.39 -1.12,-0.78 -1.69,-1.15zm1.92 1.32c0.58,0.41 1.15,0.83 1.72,1.26 -0.57,-0.43 -1.14,-0.85 -1.72,-1.26zm1.87 1.37c0.59,0.45 1.17,0.9 1.75,1.37 -0.58,-0.47 -1.16,-0.92 -1.75,-1.37zm1.83 1.43c0.61,0.49 1.21,0.98 1.81,1.49 0.54,0.47 1.08,0.94 1.62,1.41l-3.43 -2.9zm-1319.37 1793.04l-151.35 16.68c0,0 36.94,435.84 -89.81,1257.27 -134.7,873.11 -608.68,1207.39 -608.68,1207.39 0,0 0,-289.37 -249.46,-319.31 -249.46,-29.94 -349.24,129.71 -359.22,329.29 -9.98,199.56 319.31,459 658.57,199.56 339.27,-259.44 1220.25,-259.44 1559.51,0 339.27,259.44 668.55,0 658.57,-199.56 -9.98,-199.57 -109.77,-359.22 -359.22,-329.29 -249.47,29.94 -249.47,319.31 -249.47,319.31 0,0 -446.91,-364.21 -608.68,-1207.39 -156.59,-816.26 -89.8,-1257.27 -89.8,-1257.27 0,0 2.84,-0.04 8.15,0l-119.12 -16.68zm1587.77 -1949.06l-169.63 -149.67 84.82 74.83 84.81 74.84zm-2612.97 620.12c-5.97,6.37 -10.96,12.48 -13.7,17.48 2.74,-4.99 7.73,-11.1 13.7,-17.48zm-492.33 -717.74l59 -52.05 -59 52.05zm177.85 242.68c0.61,-0.17 1.21,-0.33 1.83,-0.48 -0.61,0.15 -1.22,0.31 -1.83,0.48zm4.08 -0.93c0.62,-0.1 1.25,-0.19 1.88,-0.27 -0.63,0.08 -1.26,0.17 -1.88,0.27zm2.08 -0.3c0.65,-0.07 1.31,-0.13 1.97,-0.17 -0.66,0.04 -1.32,0.1 -1.97,0.17zm2.23 -0.18c0.63,-0.03 1.26,-0.05 1.9,-0.05 -0.64,0 -1.27,0.02 -1.9,0.05zm2.12 -0.05c0.68,0 1.36,0.03 2.05,0.07 -0.69,-0.04 -1.37,-0.07 -2.05,-0.07zm2.21 0.08c0.67,0.05 1.33,0.11 2.01,0.2 -0.67,-0.09 -1.35,-0.15 -2.01,-0.2zm2.21 0.22c0.69,0.09 1.38,0.21 2.07,0.34 -0.69,-0.13 -1.38,-0.25 -2.07,-0.34zm2.29 0.38c0.67,0.13 1.34,0.28 2.02,0.46 -0.68,-0.18 -1.35,-0.33 -2.02,-0.46zm2.18 0.5c0.71,0.18 1.42,0.39 2.14,0.62 -0.72,-0.23 -1.43,-0.44 -2.14,-0.62zm2.32 0.68c0.67,0.22 1.35,0.46 2.02,0.72 -0.67,-0.26 -1.35,-0.5 -2.02,-0.72zm2.29 0.83c0.7,0.27 1.4,0.57 2.1,0.89 -0.7,-0.32 -1.4,-0.62 -2.1,-0.89zm2.2 0.94c0.74,0.34 1.48,0.71 2.22,1.1 -0.74,-0.39 -1.48,-0.76 -2.22,-1.1zm2.36 1.17c0.76,0.4 1.51,0.82 2.27,1.28 -0.76,-0.46 -1.51,-0.88 -2.27,-1.28z"/>
   </g>
   <path class="fil0" d="M4058.31 3911.1c0,0 -578.74,-708.47 -618.66,-788.3 0,0 558.8,-488.94 578.75,-558.79 0,0 529.68,584.15 616.55,579.4 12.09,-0.66 -576.64,767.68 -576.64,767.68zm-1646.42 -2813.91c99.78,-409.11 618.66,-319.31 618.66,-319.31 0,0 22.12,80.47 39.9,249.47 19.97,189.59 299.36,658.57 299.36,658.57 -59.87,79.82 -598.71,488.94 -598.71,488.94 -159.65,-159.65 -459,-668.55 -359.21,-1077.67zm1406.94 229.51c-29.94,69.85 -232.27,145.49 -232.27,145.49 -262.22,-253.64 -266.64,-544.63 -266.64,-544.63 189.59,39.91 498.91,399.14 498.91,399.14zm219.53 -1047.17c518.87,-0.56 678.53,318.75 678.53,318.75 -86.93,14.23 -688.51,498.91 -688.51,498.91l-623.65 -510.19c0,0 123.21,-306.93 633.63,-307.47zm414.77 1192.66c0,0 -202.34,-75.64 -232.28,-145.49 0,0 309.34,-359.22 498.92,-399.14 0,0 -4.43,290.99 -266.64,544.63zm516.1 -444.84c17.8,-169 39.91,-249.47 39.91,-249.47 0,0 518.87,-89.8 618.66,319.31 99.79,409.12 -199.56,918.02 -359.22,1077.67 0,0 -538.83,-409.12 -598.7,-488.94 0,0 279.39,-468.99 299.35,-658.57zm339.27 1626.48c21.89,-13.13 41.84,-3.23 58.2,12.88l176.3 -237.4 -84.82 -74.83c0,0 947.98,-909.34 279.39,-1686.35 -369.2,-429.07 -838.19,-189.6 -838.19,-189.6 0,0 -109.76,-487.83 -878.09,-478.4l-2.88 0c-768.34,-9.43 -878.1,478.4 -878.1,478.4 0,0 -468.98,-239.48 -838.18,189.6 -668.58,777.01 279.39,1686.35 279.39,1686.35l-83.76 73.9 178.91 234.87c15.64,-13.98 34.26,-21.59 54.53,-9.42 49.89,29.94 329.29,429.06 329.29,429.06 0,0 -20.9,16.73 -38.34,33.93l1017.9 1336.39 985.96 -1327.7c-18.23,-19.77 -46.78,-42.61 -46.78,-42.61 0,0 279.39,-399.13 329.29,-429.06zm-798.26 -718.45c0,0 508.89,429.07 588.72,478.96 0,0 -215.09,333.86 -322.09,481.25 0,0 -466.21,-411.4 -605.9,-581.02 0,0 279.39,-289.37 339.27,-379.18zm-741.28 -229.5c0,0 229.5,-161.5 254.45,-190.52 24.95,-29.01 214.53,200.5 284.38,220.45 0,0 -249.47,256.01 -269.41,327.58 0,0 -219.53,-327.58 -269.41,-357.5zm-828.21 708.46c79.83,-49.88 588.72,-478.96 588.72,-478.96 59.87,89.81 339.27,379.18 339.27,379.18 -139.69,169.63 -605.91,581.02 -605.91,581.02 -107,-147.39 -322.08,-481.25 -322.08,-481.25z"/>
   <path class="fil0" d="M7563.61 4290.28c0,0 -399.13,-558.79 -508.89,-588.73 0,0 225.07,-702.68 232.28,-760.45 7.2,-57.77 556.02,91.9 526.07,800.36 0,0 -49.88,419.09 -249.46,548.82zm-399.13 987.86c-429.07,219.52 -828.21,-129.72 -828.21,-129.72 169.64,-129.71 339.27,-498.91 339.27,-498.91 279.39,99.78 728.42,39.9 728.42,39.9 0,0 189.59,369.2 -239.48,588.73zm-1110.37 -209.55c-52.67,-89.8 -555.08,-336.49 -555.08,-336.49 50.83,-466.21 258.5,-651.37 258.5,-651.37 79.82,149.68 708.47,478.97 708.47,478.97 -9.98,79.83 -411.89,508.89 -411.89,508.89zm-461.23 282.01c-134.7,-67.22 -84.81,-282.01 -84.81,-282.01l369.2 189.6c-19.96,69.85 -149.68,159.65 -284.39,92.42zm-294.36 -770.95c0,0 -169.63,-79.83 -349.24,-175.73 -179.61,-95.91 -568.77,-243.37 -568.77,-243.37 99.79,-59.87 608.68,-678.53 608.68,-678.53 49.89,59.87 528.86,419.09 528.86,419.09 -169.64,289.37 -219.53,678.53 -219.53,678.53zm68.18 -1912.95c20.95,20.61 35.99,51.36 41.58,56.96 0,0 -359.22,439.05 -369.2,419.09 -2.43,-4.86 -7.23,-10.9 -13.09,-17.26l-985.96 1327.7 119.12 16.68c53.26,0.41 358.36,9.04 610.51,149.68 241.03,134.43 459,269.41 459,269.41 0,0 -69.84,508.89 229.73,659.13 349.23,175.13 658.35,-170.2 658.35,-170.2 0,0 828.2,548.82 1327.13,79.83 498.91,-468.98 189.59,-878.09 189.59,-878.09 0,0 468.99,-179.62 399.14,-1047.73 -69.85,-868.12 -728.42,-868.12 -728.42,-868.12 0,0 89.81,-758.36 -538.83,-798.27 -628.64,-39.91 -1137.54,638.62 -1137.54,638.62l-84.81 -74.84 -176.3 237.4zm226.18 181.7c19.96,-29.94 350.19,301.57 389.63,340.38 0,0 -330.87,344.76 -345.28,421.28l-453.45 -302.65c0,0 389.15,-429.07 409.11,-459.01zm1382.01 1202.4c79.83,29.93 299.35,369.19 299.35,369.19 -199.56,39.91 -459,-19.96 -459,-19.96 0,0 79.82,-379.18 159.65,-349.23zm-209.54 -199.57c0,29.94 -219.52,419.09 -219.52,419.09 -189.6,-39.91 -698.49,-468.99 -698.49,-468.99 29.94,-209.54 359.21,-429.06 359.21,-429.06l558.8 478.96zm-318.47 -653.58c-70.69,-64.86 397.43,-280 537.99,-254.45 109.77,19.96 -129.71,568.77 -129.71,568.77 0,0 -337.61,-249.46 -408.28,-314.32zm178.77 -1132.54c309.33,39.9 468.99,199.56 449.03,518.87l1.66 81.49c0,0 -490.61,-1.66 -859.81,317.65l-399.13 -289.37c0,0 498.91,-668.55 808.24,-628.64z"/>
   <path class="fil0" d="M3090.42 4403.93c-179.62,95.9 -349.24,175.73 -349.24,175.73 0,0 -49.89,-389.16 -219.53,-678.53 0,0 478.97,-359.22 528.86,-419.09 0,0 508.89,618.66 608.68,678.53 0,0 -389.16,147.46 -568.77,243.37zm-1104.83 664.66c0,0 -401.91,-429.06 -411.89,-508.89 0,0 628.64,-329.29 708.47,-478.97 0,0 207.66,185.17 258.49,651.37 0,0 -502.41,246.69 -555.07,336.49zm461.22 282.01c-134.7,67.23 -264.43,-22.57 -284.38,-92.42l369.2 -189.6c0,0 49.89,214.79 -84.82,282.01zm-1571.59 -72.46c-429.06,-219.53 -239.48,-588.73 -239.48,-588.73 0,0 449.03,59.87 728.42,-39.9 0,0 169.63,369.2 339.27,498.91 0,0 -399.14,349.24 -828.21,129.72zm-399.14 -987.86c-199.56,-129.72 -249.46,-548.82 -249.46,-548.82 -29.94,-708.47 518.88,-858.14 526.08,-800.36 7.21,57.77 232.28,760.45 232.28,760.45 -109.77,29.95 -508.9,588.73 -508.9,588.73zm937.98 -2225.18c309.33,-39.91 808.24,628.64 808.24,628.64l-399.14 289.37c-369.2,-319.31 -859.81,-317.65 -859.81,-317.65l1.67 -81.49c-19.96,-319.31 139.7,-478.97 449.03,-518.87zm419.08 1307.17c0,0 329.29,219.52 359.22,429.06 0,0 -508.89,429.07 -698.48,468.99 0,0 -219.53,-389.16 -219.53,-419.09l558.79 -478.96zm-608.68 1027.76c0,0 -259.44,59.87 -459,19.96 0,0 219.52,-339.27 299.35,-369.19 79.82,-29.95 159.65,349.23 159.65,349.23zm-39.91 -888.07c0,0 -239.48,-548.81 -129.71,-568.77 140.56,-25.56 608.68,189.59 537.99,254.45 -70.67,64.86 -408.28,314.32 -408.28,314.32zm1262.26 -663.56c19.96,29.94 409.12,459.01 409.12,459.01l-453.47 302.65c-14.41,-76.52 -345.26,-421.28 -345.26,-421.28 39.43,-38.8 369.67,-370.31 389.62,-340.38zm590.36 254.35c-14.44,12.94 -31.22,29.34 -36.56,40.01 -9.98,19.96 -369.2,-419.09 -369.2,-419.09 7.81,-7.81 34,-64.6 68.95,-74.46l-163.29 -219.9 -14.56 -22.78 -110.63 97.62c0,0 -508.9,-678.53 -1137.54,-638.62 -628.64,39.91 -538.83,798.27 -538.83,798.27 0,0 -658.57,0 -728.42,868.12 -69.85,868.12 399.14,1047.73 399.14,1047.73 0,0 -309.33,409.12 189.59,878.09 498.91,468.99 1327.13,-79.83 1327.13,-79.83 0,0 309.12,345.32 658.35,170.2 299.57,-150.24 229.72,-659.13 229.72,-659.13 0,0 227.3,-119.48 459.01,-269.41 254.45,-164.65 618.66,-149.68 618.66,-149.68l151.35 -16.68 -1002.87 -1350.46z"/>
  </g>
 </g>
</svg>
