<?xml version="1.0" encoding="UTF-8"?>
<!DOCTYPE svg PUBLIC "-//W3C//DTD SVG 1.1//EN" "http://www.w3.org/Graphics/SVG/1.1/DTD/svg11.dtd">
<!-- Creator: CorelDRAW 2021 (64-Bit) -->
<svg xmlns="http://www.w3.org/2000/svg" xml:space="preserve" width="48.593mm" height="48.8571mm" version="1.1" style="shape-rendering:geometricPrecision; text-rendering:geometricPrecision; image-rendering:optimizeQuality; fill-rule:evenodd; clip-rule:evenodd"
viewBox="0 0 1839.98 1849.98"
 xmlns:xlink="http://www.w3.org/1999/xlink"
 xmlns:xodm="http://www.corel.com/coreldraw/odm/2003">
 <defs>
  <style type="text/css">
   <![CDATA[
    .fil0 {fill:#FEFEFE}
   ]]>
  </style>
 </defs>
 <g id="Layer_x0020_1">
  <metadata id="CorelCorpID_0Corel-Layer"/>
  <g id="_1968628639232">
   <path class="fil0" d="M221.98 1628c8.47,-36.37 21.16,-72.17 29.38,-108.74 2.27,-10.09 4.07,-13.46 6.51,-23.09 0.97,-3.82 1.26,-6.28 2.34,-10l34.17 -123.94c4.49,-16.49 -3.48,-22.07 -12.16,-36.17 -7.8,-12.68 -13.75,-23.01 -21.27,-35.46 -17.82,-29.53 -32.11,-60.88 -44.62,-93.5l-8.07 -21.52c-2.24,-6.01 -1.05,-1.75 -3.45,-8.88 -1.56,-4.62 -1.76,-6.05 -3.64,-11.17 -10.03,-27.44 -19.59,-60.04 -23.8,-89.65 -8.24,-57.96 -14.58,-107.2 -14.58,-167.94 0,-24.97 5.05,-82.02 11.08,-104.84 1.52,-5.77 2.6,-16.7 3.24,-21.43 1.67,-12.35 1.6,-8.62 4.15,-18.05 2.03,-7.56 2.17,-13.02 4.2,-20.46l22.09 -71.63c2.19,-5.71 3.14,-10.31 5.8,-16.4 24.01,-54.7 48.53,-109.25 83.67,-158.03l48.65 -62.34c7.34,-9.11 13.82,-16.79 21.61,-25.26 0.34,-0.37 0.86,-0.89 1.2,-1.26l124.79 -107.05 135.3 -74.34c34.22,-14.13 69.31,-25.79 105.18,-35.4l59.03 -12.49c13.77,-2.85 30.17,-2.73 41.41,-5.44 67.42,-16.3 215.18,1.35 275.04,17.38 6.2,1.66 9.73,3.68 18.96,5.7 30.53,6.68 58.49,16.91 86.51,29.41 5.77,2.57 10.93,5.18 16.87,7.8l32.07 14.79c61.2,29.15 115.92,70.27 166.3,114.88 24.6,21.78 48.72,45.84 69.87,70.71l3.39 4.02c23.94,28.47 43.5,60.17 65.1,90.28 16.72,23.29 29.92,50.49 41.62,76.78 23.92,53.76 32.07,81.25 48.77,138.67 11.83,40.67 14.42,79.02 18.83,121.76 3.93,38.16 7.33,76.37 1.35,115.49 -3.15,20.6 -2.51,37.47 -7.72,66.28 -2.36,13.09 -2.12,19.39 -5.33,31.67l-14.6 59.4c-3.51,10.82 -5.39,18.76 -8.57,28.43l-32.77 80.67c-4.56,10.71 -7.09,15.16 -12.2,24.81 -2.53,4.78 -4.09,8.68 -6.47,13.26 -2.07,3.95 -4.94,8.34 -7.25,12.48l-75.9 111.55 -71.97 76.01c-7.63,7.74 -12.31,10.36 -19.74,17.27 -42.12,39.15 -93.95,73.36 -145.65,98.51l-85.02 38.3c-39.98,14.49 -81.28,26.65 -123.32,34.53 -29.87,5.6 -70.35,10.82 -100.43,10.56 -16.51,-0.14 -24.05,1.73 -37.02,2.51l-103.58 -7.44c-25.25,-6.24 -53.9,-7.14 -78.89,-14.83 -6.3,-1.94 -8.38,-1.79 -16.19,-3.55 -8.53,-1.92 -20.65,-6.18 -28.22,-8.77 -26.07,-8.91 -51.45,-15.73 -75.94,-27.65 -0.55,-0.27 -4.84,-2.56 -6.54,-3.33 -9.79,-4.43 -16.59,-7.1 -25.68,-11.32l-71.42 -39.68c-15.22,-10 -36.72,-0.9 -57.21,5.53l-58.33 15.66c-10.94,2.9 -18.87,5.13 -29.47,7.52 -13.4,3.02 -18.19,5.25 -31.62,7.83l-58.68 15.32c-20.59,4.93 -40.14,13.59 -61.13,15.33zm-217.04 -710.32l5.12 100.94c0.93,12 4.01,18.31 4.74,32.24 1.89,35.37 18.35,95.27 28.72,131.61l68.74 165.56c2.45,4.52 3.96,7.17 6.11,11.16 11.92,22.12 8.19,17.85 1.06,42.95 -17.75,62.53 -32.95,131.26 -52.17,192 -1.81,5.73 -2.93,7.79 -4.55,15.18 -1.59,7.23 -1.92,8.66 -3.51,13.76l-20.39 73.33c-11.84,35.4 -19,68.72 -28.96,104.22 -4.65,16.56 -9.84,30.36 -9.84,49.35 12.18,-1.01 20.11,-4.85 29.8,-7.19l29.14 -7.85c34.9,-7.84 69.89,-20.34 105.63,-27.55 3.84,-0.78 11.03,-2.05 16.1,-3.62 37.66,-11.68 83.16,-24.42 120.88,-32.03 9.17,-1.85 6.61,-1.64 13.5,-3.77 5.02,-1.55 12.09,-2.84 15.96,-3.77 10.89,-2.61 20.26,-5.32 30.9,-8.57l74.65 -19.07c7.72,-2.18 7.18,-3 15.12,-4.61 46.54,-9.51 21.75,-11.64 76.38,14.19 16.24,7.68 30.55,13.94 48.35,20.71 6.07,2.31 15.54,6.27 22.9,9.16 34.58,13.55 66.28,25.17 103.63,32.02 9.68,1.77 5.13,1.23 13.54,3.73l43.12 8.68c23.77,2.43 65.79,11.25 88.82,12.31l86.34 2.45c21.2,0 36.28,-2.43 54.26,-2.47 19.99,-0.05 31.78,-3.69 51.62,-5.11 31.06,-2.23 85.23,-13.78 117.36,-23.23 8.39,-2.46 13.8,-4.27 22.89,-6.71 14.06,-3.77 28.64,-8.44 42.8,-13.92 27.05,-10.45 56.43,-19.92 82.41,-33.51 6.46,-3.38 0.98,-1.08 8.24,-4.09 29.16,-12.09 56.39,-28.24 83.64,-44.61 43.5,-26.13 83.56,-57.15 122.43,-89.69 0.39,-0.33 0.96,-0.79 1.35,-1.11l52.42 -48.71c5.34,-5.3 7.95,-8.42 13.18,-13.95 3.35,-3.54 3.57,-3.4 7.27,-7.53 29.49,-32.97 57.17,-65.88 82,-102.98 4.43,-6.62 6.93,-9.12 11.42,-15.71 4.33,-6.35 7.66,-12.56 11.15,-18.44 21.78,-36.62 42.76,-73.23 60.16,-112.49l16.77 -39.96c23.2,-55.87 39.29,-120.59 49.68,-179.7l6.92 -49.81c1.34,-17.13 4.79,-34.21 4.68,-52.05 -0.12,-19 2.5,-34.79 2.58,-56.73 0.07,-18.96 -2.64,-32.53 -2.51,-54.22 0.17,-29.27 -4.8,-48.38 -7.56,-76.29 -1.83,-18.6 -8.44,-40.8 -11.79,-59.73 -1.04,-5.88 -0.52,-6.93 -1.95,-12.84 -1.93,-7.99 -3.83,-13.68 -5.59,-21.54 -12.01,-53.46 -35.6,-118.88 -61.5,-167.88 -51.72,-97.85 -76.29,-134.35 -142.1,-213.06 -3.32,-3.96 -3.48,-4.29 -6.9,-7.9l-22.01 -22.38c-1.79,-2.08 -1.44,-1.76 -3.36,-4.04 -0.33,-0.39 -0.78,-0.96 -1.12,-1.34l-2.29 -2.65c-26.49,-28.89 -96.39,-86.45 -130.8,-108.43l-108.27 -64.38c-35.48,-18.63 -73.59,-32.73 -111.32,-46.53 -38.6,-14.13 -116.77,-35.34 -160.58,-39.2 -13.95,-1.23 -13.84,-2.03 -25.4,-4.2 -27.65,-5.18 -108.25,-6.41 -142.19,-5.99 -13.32,0.16 -14.54,2.32 -26.96,2.64 -17.93,0.47 -36.67,0.53 -54.07,2.66l-117.64 22.94 -86.32 27.13c-7.63,2.83 -14.68,6.12 -21.12,8.48l-98.11 44.94 -122.74 79.5 -53.66 45c-0.39,0.33 -0.96,0.79 -1.35,1.11l-37.21 34.32c-0.36,0.37 -0.83,0.92 -1.18,1.29 -64.97,71.86 -123.47,141.54 -166.95,230.14 -12.6,25.67 -26.12,52.75 -36.12,79.8 -5.21,14.11 -9.88,27.49 -15.09,41.64 -2.39,6.5 -4.09,13.12 -6.7,20.43 -12.33,34.54 -29.9,103.87 -32.67,139.98 -2.11,27.54 -7.66,49.38 -7.45,78.88 0.16,21.19 -2.48,34.14 -2.48,56.71z"/>
   <path class="fil0" d="M1139.47 1359.16c70.26,0 85.96,-2.79 149.41,-33.09l36.96 -24.71c15.08,-12.71 30.35,-26.33 39.76,-44.09 12.16,-22.93 19.03,-50.72 20.51,-75.69 3.87,-65.54 0.76,-49.55 -90.93,-96.52l-98.54 -46.97c-32.18,-14.88 -47.1,-19.14 -69.16,10.63l-58.42 72.31c-33.38,39.4 -39.16,27.24 -93.81,2.79 -48.75,-21.8 -95.14,-52.2 -135.58,-86.4l-12.82 -11.84c-5.81,-5.9 -7.82,-7.43 -14.24,-12.88 -0.55,-0.47 -2.09,-1.83 -2.62,-2.31 -0.37,-0.34 -0.9,-0.85 -1.26,-1.2l-9.63 -10.11c-4.71,-5.45 -8.63,-9.99 -14.16,-15.43 -19.9,-19.58 -89.41,-107.56 -89.41,-132.57 0,-25.2 76.46,-88.67 76.46,-123.32 0,-17.72 -50.56,-127.81 -60.38,-154.2 -7.69,-20.68 -15.52,-43.72 -27.96,-60.83 -20.23,-27.79 -35.66,-19.28 -96.64,-19.28 -48,0 -104.86,90.63 -120.57,140.87 -14.57,46.57 -11.9,91.71 -4.88,137.5 8.14,53.07 54.19,134.53 85.31,176.13l110.31 138.79 109.68 102.44c22.73,17.77 44.64,36.59 69.4,51.45 6.52,3.92 9.19,6.29 14.77,9.89l24.99 14.48c3.21,1.82 4.49,2.33 8,4.33l117.66 52.52c3.71,1.55 4.84,2.42 10.57,4.22l80.27 25.79c8.47,2.2 13.97,1.6 23.75,3.39 10.34,1.9 11.14,3.91 23.22,3.91z"/>
  </g>
 </g>
</svg>
